<svg xmlns="http://www.w3.org/2000/svg" viewBox="0 0 800 500" role="img" aria-label="Soporte tecnico de PC">
  <defs>
    <linearGradient id="bg" x1="0" y1="0" x2="1" y2="1">
      <stop offset="0%" stop-color="#1c4fb3"/>
      <stop offset="100%" stop-color="#0ea2d8"/>
    </linearGradient>
    <linearGradient id="screen" x1="0" y1="0" x2="1" y2="1">
      <stop offset="0%" stop-color="#e9f3ff"/>
      <stop offset="100%" stop-color="#c8e0ff"/>
    </linearGradient>
  </defs>
  <rect width="800" height="500" rx="28" fill="url(#bg)"/>
  <rect x="92" y="86" width="616" height="322" rx="24" fill="#0b2e76" opacity="0.35"/>
  <rect x="168" y="116" width="464" height="260" rx="18" fill="url(#screen)"/>
  <rect x="346" y="386" width="108" height="24" rx="10" fill="#10306b"/>
  <rect x="286" y="410" width="228" height="22" rx="11" fill="#21488f"/>
  <path d="M248 222h90v56h-90zM462 184h90v56h-90zM356 260h90v56h-90z" fill="#2e63c8" opacity="0.78"/>
  <path d="M248 250l45-44 45 44M462 212l45-44 45 44M356 288l45-44 45 44" fill="none" stroke="#ffffff" stroke-width="8" stroke-linecap="round" stroke-linejoin="round"/>
  <text x="400" y="72" text-anchor="middle" font-family="Montserrat, Arial, sans-serif" font-size="34" font-weight="800" fill="#ffffff">SOPORTE TECNICO DE PC</text>
</svg>
